<?xml version="1.0" encoding="iso-8859-1"?>
<!-- Generator: Adobe Illustrator 19.0.0, SVG Export Plug-In . SVG Version: 6.00 Build 0)  -->
<svg version="1.1" id="Layer_1" xmlns="http://www.w3.org/2000/svg" xmlns:xlink="http://www.w3.org/1999/xlink" x="0px" y="0px"
	 viewBox="0 0 512 512" style="enable-background:new 0 0 512 512;" xml:space="preserve">
<rect x="41.942" y="434.981" style="fill:#003A7F;" width="428.116" height="35.568"/>
<polyline style="fill:#FFAE18;" points="42.054,149.813 42.054,434.984 470.057,434.984 470.057,149.813 "/>
<g>
	<rect x="76.104" y="288.246" style="fill:#C2EDFF;" width="149.598" height="111.188"/>
	<rect x="286.302" y="288.246" style="fill:#C2EDFF;" width="149.598" height="111.188"/>
</g>
<rect x="225.698" y="288.246" style="fill:#27B5F7;" width="60.604" height="146.745"/>
<path style="fill:#C2EDFF;" d="M113.222,149.813v74.512c0,19.714,15.981,35.695,35.695,35.695s35.695-15.981,35.695-35.695v-74.512
	H113.222z"/>
<g>
	<path style="fill:#27B5F7;" d="M41.832,149.813v74.512c0,19.714,15.981,35.695,35.695,35.695s35.695-15.981,35.695-35.695v-74.512
		H41.832z"/>
	<path style="fill:#27B5F7;" d="M184.61,149.813v74.512c0,19.714,15.981,35.695,35.695,35.695S256,244.039,256,224.325v-74.512
		h-71.39V149.813z"/>
</g>
<path style="fill:#C2EDFF;" d="M470.167,149.813v74.512c0,19.714-15.981,35.695-35.695,35.695s-35.695-15.981-35.695-35.695v-74.512
	h-71.39v74.512c0,19.714-15.981,35.695-35.695,35.695c-19.714,0-35.694-15.981-35.694-35.694v-74.512h214.167V149.813z"/>
<path style="fill:#27B5F7;" d="M327.389,149.813v74.512c0,19.714,15.981,35.695,35.695,35.695c19.713,0,35.695-15.981,35.695-35.695
	v-74.512H327.389z"/>
<path d="M146.368,340.161c2.675,0,5.348-1.02,7.388-3.06l0.097-0.097c4.08-4.08,4.08-10.697,0-14.778
	c-4.081-4.08-10.696-4.08-14.778,0l-0.097,0.097c-4.08,4.08-4.08,10.697,0,14.778C141.02,339.141,143.694,340.161,146.368,340.161z"
	/>
<path d="M353.319,340.161c2.675,0,5.348-1.02,7.388-3.06l0.097-0.097c4.08-4.08,4.08-10.697,0-14.778
	c-4.081-4.08-10.696-4.08-14.778,0l-0.097,0.097c-4.08,4.08-4.08,10.697,0,14.778C347.971,339.141,350.644,340.161,353.319,340.161z
	"/>
<path d="M501.551,460.105h-21.045l0.11-310.292c0-5.771-4.679-10.449-10.449-10.449c-0.019,0-0.037,0.002-0.055,0.003
	c-0.019,0-0.037-0.003-0.055-0.003H42.054c-0.038,0-0.073,0.005-0.111,0.005c-0.038,0-0.073-0.005-0.111-0.005
	c-5.77,0-10.449,4.678-10.449,10.449l0.222,283.727c-0.066,0.473-0.111,26.564-0.111,26.564H10.449
	C4.679,460.105,0,464.783,0,470.554c0,5.771,4.679,10.449,10.449,10.449h491.102c5.77,0,10.449-4.678,10.449-10.449
	C512,464.783,507.321,460.105,501.551,460.105z M129.855,346.226c-4.079-4.08-10.693-4.08-14.778,0l-28.525,28.525v-76.057
	l128.697-0.006v14.399c-0.052,0.05-0.109,0.093-0.16,0.145l-75.748,75.748H101.88l27.975-27.975
	C133.936,356.923,133.936,350.307,129.855,346.226z M215.249,342.626v46.353h-46.353L215.249,342.626z M236.147,298.687
	l39.706-0.001v125.851h-39.706V298.687z M425.447,309.823l-79.156,79.155h-37.462l27.975-27.975c4.08-4.08,4.08-10.697,0-14.777
	c-4.081-4.08-10.696-4.08-14.778,0l-25.275,25.276v-72.819l128.696-0.005L425.447,309.823L425.447,309.823z M425.447,339.378v49.6
	h-49.601L425.447,339.378z M296.751,409.876h139.145c5.77,0,10.449-4.678,10.449-10.449V288.228c0-2.771-1.101-5.429-3.06-7.388
	c-1.96-1.959-4.618-3.06-7.388-3.06l-359.792,0.016c-5.771,0-10.449,4.679-10.449,10.449v111.183
	c0,5.771,4.679,10.449,10.449,10.449h139.145v14.659H52.503V263.063c7.215,4.677,15.804,7.405,25.024,7.405
	c14.37,0,27.225-6.606,35.694-16.938c8.469,10.332,21.324,16.938,35.695,16.938s27.226-6.606,35.695-16.938
	c8.469,10.332,21.323,16.938,35.694,16.938s27.226-6.606,35.695-16.938c8.469,10.332,21.324,16.938,35.695,16.938
	s27.225-6.606,35.694-16.938c8.469,10.332,21.324,16.938,35.695,16.938c14.371,0,27.226-6.606,35.695-16.938
	c8.469,10.332,21.323,16.938,35.694,16.938c9.267,0,17.898-2.755,25.136-7.477v161.543H296.751V409.876z M123.67,160.262h50.492
	v64.063c0,13.92-11.326,25.246-25.246,25.246s-25.246-11.326-25.246-25.246L123.67,160.262L123.67,160.262z M337.837,160.262h50.492
	v64.063c0,13.92-11.326,25.246-25.246,25.246c-13.92,0-25.246-11.326-25.246-25.246L337.837,160.262L337.837,160.262z
	 M266.449,160.262h50.49v64.063c0,13.92-11.325,25.246-25.245,25.246c-13.92,0-25.246-11.325-25.246-25.245V160.262z
	 M195.061,160.262h50.491v64.063c0,13.92-11.326,25.246-25.246,25.246s-25.245-11.326-25.245-25.246V160.262z M459.608,226.635
	c-1.171,12.841-11.994,22.936-25.136,22.936c-13.92,0-25.245-11.326-25.245-25.246v-64.063h50.381V226.635z M102.772,160.262v64.063
	c0,13.92-11.325,25.246-25.245,25.246c-12.805,0-23.406-9.585-25.024-21.955v-67.353H102.772z M52.392,460.105v-14.672h407.217
	v14.672H52.392z"/>
<path d="M10.473,107.628c5.77,0,10.449-4.678,10.449-10.449c0-11.76,9.479-21.328,21.132-21.328c0.698,0,1.439,0.04,2.203,0.116
	c4.702,0.478,9.138-2.264,10.818-6.681c3.957-10.403,14.062-17.391,25.145-17.391c11.085,0,21.192,6.988,25.148,17.39
	c1.679,4.418,6.114,7.158,10.819,6.682c0.762-0.077,1.503-0.116,2.198-0.116c7.895,0,14.793,4.391,18.422,10.879H61.409
	c-5.77,0-10.449,4.678-10.449,10.449s4.679,10.449,10.449,10.449h88.562c5.77,0,10.449-4.678,10.449-10.449
	c0-22.166-17.091-40.399-38.73-42.097c-8.431-14.655-24.284-24.085-41.469-24.085c-17.181,0-33.033,9.43-41.466,24.084
	C17.116,56.778,0.024,75.012,0.024,97.179C0.024,102.95,4.703,107.628,10.473,107.628z"/>
<path d="M318.869,90.277H456.62c5.77,0,10.449-4.678,10.449-10.449s-4.679-10.449-10.449-10.449H318.869
	c-5.77,0-10.449,4.678-10.449,10.449S313.099,90.277,318.869,90.277z"/>
<path d="M283.127,90.277h0.123c5.77,0,10.449-4.678,10.449-10.449s-4.679-10.449-10.449-10.449h-0.123
	c-5.77,0-10.449,4.678-10.449,10.449S277.356,90.277,283.127,90.277z"/>
<path d="M318.869,122.603h114.347c5.77,0,10.449-4.678,10.449-10.449s-4.679-10.449-10.449-10.449H318.869
	c-5.77,0-10.449,4.678-10.449,10.449S313.099,122.603,318.869,122.603z"/>
<path d="M215.749,122.603h68.876c5.77,0,10.449-4.678,10.449-10.449s-4.679-10.449-10.449-10.449h-68.876
	c-5.77,0-10.449,4.678-10.449,10.449S209.98,122.603,215.749,122.603z"/>
<g>
</g>
<g>
</g>
<g>
</g>
<g>
</g>
<g>
</g>
<g>
</g>
<g>
</g>
<g>
</g>
<g>
</g>
<g>
</g>
<g>
</g>
<g>
</g>
<g>
</g>
<g>
</g>
<g>
</g>
</svg>
